<?xml version="1.0" encoding="UTF-8" ?>
<!DOCTYPE svg PUBLIC "-//W3C//DTD SVG 1.1//EN" "http://www.w3.org/Graphics/SVG/1.1/DTD/svg11.dtd">
<svg width="1149pt" height="162pt" viewBox="0 0 1149 162" version="1.1" xmlns="http://www.w3.org/2000/svg">
<g id="#ffffffff">
</g>
<g id="#375172ff">
<path fill="#375172" opacity="1.00" d=" M 70.63 2.88 C 86.02 0.88 102.19 2.49 116.17 9.57 C 126.65 14.06 135.55 21.50 143.02 30.01 C 143.84 31.05 144.42 32.24 145.04 33.41 C 134.84 33.53 124.64 33.36 114.44 33.47 C 114.41 35.67 114.39 37.86 114.38 40.05 C 115.49 41.02 117.71 41.35 117.52 43.21 C 117.71 49.60 117.45 55.99 117.61 62.38 C 131.61 62.50 145.62 62.36 159.62 62.45 C 159.61 63.79 159.61 65.14 159.62 66.48 C 145.70 66.31 131.77 66.55 117.85 66.36 C 116.86 65.07 116.11 62.96 114.08 63.32 C 87.88 63.34 61.68 63.22 35.49 63.39 C 35.41 65.05 35.32 66.71 35.23 68.36 C 36.96 68.81 38.70 69.27 40.44 69.70 C 40.35 73.93 40.39 78.17 40.47 82.40 C 80.70 82.46 120.93 82.53 161.15 82.36 C 161.86 87.61 160.69 92.82 159.74 97.96 C 156.62 111.26 150.59 124.12 141.02 134.01 C 137.52 137.53 134.26 141.48 129.78 143.80 C 129.79 124.62 129.87 105.43 129.75 86.24 C 125.95 86.19 122.16 86.24 118.37 86.05 C 117.85 87.64 117.50 89.29 117.54 90.97 C 117.53 111.18 117.66 131.40 117.50 151.60 C 113.86 154.10 109.43 155.13 105.28 156.49 C 100.80 157.68 96.28 159.15 91.58 158.76 C 91.64 134.41 91.89 110.04 91.46 85.70 C 87.13 85.88 82.54 84.81 78.45 86.66 C 78.62 110.97 78.51 135.28 78.51 159.59 C 69.87 159.29 61.10 157.61 53.23 153.95 C 53.33 133.63 53.22 113.31 53.29 92.98 C 53.31 90.60 53.03 88.23 52.72 85.88 C 48.69 85.50 44.63 85.61 40.59 85.71 C 40.17 106.14 40.47 126.59 40.44 147.02 C 39.16 146.52 37.85 146.06 36.68 145.31 C 15.74 130.36 2.69 104.74 3.69 78.94 C 3.95 61.96 10.24 45.14 20.78 31.86 C 32.92 16.30 51.17 5.89 70.63 2.88 M 40.47 43.68 C 40.35 48.93 40.32 54.20 40.52 59.45 C 65.16 59.59 89.80 59.54 114.43 59.48 C 114.58 54.21 114.58 48.94 114.44 43.68 C 89.79 43.61 65.13 43.61 40.47 43.68 Z" />
<path fill="#375172" opacity="1.00" d=" M 505.62 10.84 C 513.40 8.34 522.09 8.09 529.69 11.40 C 535.17 13.83 538.89 19.50 538.95 25.49 C 535.89 26.24 532.77 26.70 529.62 26.73 C 528.38 23.08 526.52 18.86 522.32 17.98 C 517.43 16.94 511.37 16.72 507.49 20.42 C 504.62 22.89 504.81 27.97 507.80 30.29 C 511.51 33.54 516.75 33.47 521.32 34.45 C 527.03 35.63 533.37 37.12 537.08 42.03 C 540.32 45.92 539.74 51.35 539.49 56.04 C 538.55 63.41 531.05 67.77 524.34 68.98 C 516.90 69.85 508.86 69.56 502.27 65.62 C 497.05 62.50 494.53 56.27 494.20 50.42 C 497.47 50.25 500.74 50.23 504.01 50.44 C 504.99 55.05 508.04 59.81 513.11 60.36 C 517.75 60.53 523.30 61.61 527.03 58.09 C 529.70 56.03 529.88 52.23 529.02 49.23 C 527.65 46.37 524.50 44.87 521.56 44.17 C 514.59 42.69 507.04 42.19 500.97 38.10 C 495.61 34.33 494.62 27.12 495.87 21.12 C 497.30 16.45 501.20 12.76 505.62 10.84 Z" />
<path fill="#375172" opacity="1.00" d=" M 680.41 9.73 C 688.47 7.88 697.64 9.44 704.02 14.93 C 709.43 19.46 712.27 26.44 713.20 33.30 C 713.47 39.98 713.86 47.00 711.18 53.30 C 708.55 59.98 703.29 65.97 696.24 68.00 C 686.67 70.86 675.07 69.58 667.93 62.06 C 661.73 56.54 660.18 47.88 659.54 40.02 C 659.65 31.20 662.23 21.95 668.55 15.51 C 671.84 12.53 676.04 10.55 680.41 9.73 M 679.45 19.41 C 674.02 22.10 671.01 28.10 670.60 33.98 C 670.18 40.56 669.96 47.74 673.51 53.59 C 678.67 62.58 693.76 63.07 699.30 54.24 C 703.04 48.23 703.68 40.80 702.73 33.92 C 702.37 27.44 698.20 20.79 691.91 18.67 C 687.82 18.16 683.30 17.66 679.45 19.41 Z" />
<path fill="#375172" opacity="1.00" d=" M 741.43 9.77 C 750.24 8.00 760.36 9.54 766.98 16.03 C 772.61 22.18 775.42 30.69 774.74 39.00 C 775.42 47.98 772.65 57.63 765.52 63.53 C 759.36 69.08 750.56 70.12 742.64 68.98 C 736.88 67.95 731.29 65.10 727.66 60.42 C 722.89 54.01 720.73 45.90 721.30 37.96 C 720.95 25.66 728.62 12.14 741.43 9.77 M 746.48 17.69 C 739.78 18.27 734.14 23.46 732.90 30.04 C 730.62 37.60 731.34 45.96 734.80 53.03 C 738.75 61.00 750.00 62.71 757.04 58.00 C 761.57 54.77 763.72 49.25 764.45 43.91 C 764.97 37.62 764.85 30.89 761.57 25.29 C 758.63 20.08 752.38 16.99 746.48 17.69 Z" />
<path fill="#375172" opacity="1.00" d=" M 866.43 9.73 C 874.14 8.57 882.71 8.97 889.18 13.83 C 896.46 19.43 900.28 28.89 899.68 37.98 C 900.26 46.33 898.50 55.32 892.52 61.53 C 880.85 74.52 855.84 71.11 849.16 54.59 C 845.83 48.23 846.28 40.90 846.51 33.96 C 847.08 22.77 855.11 11.85 866.43 9.73 M 870.48 17.76 C 866.31 18.72 862.09 20.89 859.93 24.76 C 856.63 30.53 856.02 37.44 856.81 43.94 C 857.65 49.17 859.32 54.87 863.97 57.98 C 867.67 60.71 872.51 60.85 876.90 60.20 C 882.50 58.95 886.85 54.13 888.32 48.69 C 890.37 41.51 890.12 33.51 887.13 26.63 C 884.50 20.30 877.12 16.68 870.48 17.76 Z" />
<path fill="#375172" opacity="1.00" d=" M 205.36 10.48 C 213.57 10.59 221.79 10.43 230.00 10.54 C 235.34 11.06 241.27 12.80 244.28 17.63 C 246.06 21.16 245.99 25.33 245.54 29.17 C 245.16 32.77 242.06 35.07 239.96 37.71 C 243.08 39.87 246.47 42.46 247.32 46.39 C 248.26 51.71 247.84 57.85 244.02 62.03 C 240.06 66.58 233.71 67.48 228.06 68.26 C 220.53 68.45 212.99 68.18 205.46 68.38 C 205.13 49.08 205.32 29.78 205.36 10.48 M 215.24 18.81 C 215.36 23.98 215.20 29.16 215.43 34.33 C 220.25 34.14 225.13 34.60 229.90 33.63 C 232.37 33.33 234.85 31.86 235.54 29.33 C 237.74 25.70 235.41 20.43 231.34 19.44 C 226.13 17.91 220.59 18.67 215.24 18.81 M 215.20 42.43 C 215.41 48.11 215.15 53.79 215.44 59.47 C 221.19 59.23 227.14 60.31 232.76 58.79 C 240.11 56.60 239.36 43.87 231.78 42.56 C 226.28 41.97 220.71 42.01 215.20 42.43 Z" />
<path fill="#375172" opacity="1.00" d=" M 256.45 10.47 C 269.17 10.55 281.89 10.53 294.60 10.48 C 294.64 13.48 294.65 16.49 294.54 19.49 C 285.40 19.59 276.25 19.32 267.11 19.59 L 266.55 20.25 C 266.19 24.73 266.53 29.23 266.41 33.72 C 275.22 34.00 284.09 33.14 292.86 34.25 C 293.29 36.94 293.32 39.66 293.21 42.37 C 284.33 42.89 275.42 42.54 266.52 42.56 C 266.38 48.14 266.34 53.73 266.55 59.31 C 276.25 59.30 285.95 59.18 295.64 59.37 C 295.53 62.08 295.35 64.78 295.16 67.48 C 282.32 67.87 269.47 67.47 256.62 67.69 C 256.16 48.63 256.51 29.55 256.45 10.47 Z" />
<path fill="#375172" opacity="1.00" d=" M 304.66 10.58 C 311.79 10.44 318.92 10.57 326.05 10.48 C 332.00 10.25 338.05 12.53 342.45 16.53 C 346.56 20.57 345.77 26.81 345.56 32.03 C 345.40 36.97 341.62 40.49 337.77 42.98 C 340.61 51.48 345.16 59.26 348.66 67.49 C 345.10 67.64 341.52 67.86 337.98 67.46 C 333.92 60.45 331.18 52.74 327.69 45.44 C 323.42 45.39 319.14 45.39 314.87 45.40 C 314.36 53.05 314.91 60.72 314.53 68.38 C 311.26 68.30 307.99 68.31 304.72 68.28 C 304.56 49.05 304.69 29.81 304.66 10.58 M 314.60 19.36 C 314.69 25.14 314.72 30.93 314.56 36.71 C 319.62 37.47 324.75 37.14 329.80 36.44 C 332.84 35.87 335.46 33.19 335.58 30.03 C 335.81 26.86 336.15 22.77 332.91 20.97 C 327.35 18.04 320.63 18.32 314.60 19.36 Z" />
<path fill="#375172" opacity="1.00" d=" M 551.10 20.06 C 554.64 14.09 561.17 10.29 567.99 9.48 C 574.68 8.72 582.01 9.32 587.54 13.54 C 592.01 17.08 594.11 22.74 595.00 28.22 C 591.77 29.33 588.36 29.81 584.96 29.51 C 584.24 24.92 581.81 19.83 576.94 18.58 C 572.48 18.08 567.34 17.57 563.64 20.66 C 558.61 24.54 556.97 31.15 556.56 37.19 C 556.17 44.00 557.50 51.48 562.49 56.49 C 567.24 61.66 576.16 61.94 581.47 57.49 C 584.22 55.39 584.22 51.62 585.77 48.77 C 589.10 48.12 592.53 48.55 595.91 48.46 C 596.02 56.49 590.93 64.37 583.40 67.28 C 575.37 70.55 565.69 70.11 558.15 65.72 C 551.23 61.49 547.45 53.59 546.55 45.74 C 545.75 37.02 546.03 27.57 551.10 20.06 Z" />
<path fill="#375172" opacity="1.00" d=" M 639.71 10.65 C 643.28 10.47 646.86 10.49 650.44 10.55 C 650.31 29.79 650.55 49.04 650.31 68.28 C 647.05 68.30 643.79 68.31 640.54 68.40 C 640.20 59.83 640.54 51.25 640.34 42.67 C 631.77 42.56 623.19 42.63 614.61 42.63 C 614.37 50.94 614.63 59.25 614.47 67.56 C 611.33 67.63 608.18 67.81 605.06 67.49 L 604.60 66.74 C 604.32 48.11 604.65 29.47 604.44 10.84 C 607.75 10.41 611.08 10.46 614.41 10.56 C 614.60 18.23 614.52 25.90 614.46 33.57 C 622.86 33.70 631.26 33.52 639.66 33.68 C 639.81 26.01 639.71 18.33 639.71 10.65 Z" />
<path fill="#375172" opacity="1.00" d=" M 784.94 10.45 C 788.16 10.52 791.39 10.52 794.62 10.45 C 794.78 26.53 794.62 42.60 794.70 58.67 C 804.02 58.84 813.35 58.80 822.68 58.68 C 822.76 61.96 822.43 65.24 821.36 68.36 C 809.33 68.31 797.29 68.22 785.26 68.41 C 784.22 63.33 784.80 58.13 784.68 53.00 C 784.84 38.82 784.33 24.62 784.94 10.45 Z" />
<path fill="#375172" opacity="1.00" d=" M 909.67 10.57 C 921.96 10.43 934.24 10.58 946.53 10.50 C 946.54 13.50 946.55 16.50 946.52 19.50 C 937.54 19.75 928.50 18.93 919.56 19.94 C 919.74 24.83 919.68 29.73 919.61 34.62 C 927.90 35.96 936.35 34.97 944.71 35.29 C 944.69 38.07 944.69 40.85 944.72 43.63 C 936.39 43.70 928.06 43.51 919.73 43.73 C 919.53 51.95 919.86 60.17 919.53 68.38 C 916.26 68.30 912.99 68.31 909.73 68.28 C 909.58 49.05 909.70 29.81 909.67 10.57 Z" />
<path fill="#375172" opacity="1.00" d=" M 356.50 10.55 C 359.51 10.51 362.53 10.51 365.55 10.53 C 365.91 26.75 365.53 42.99 365.74 59.22 C 375.06 59.38 384.38 59.17 393.71 59.33 C 393.25 62.03 394.65 65.64 392.15 67.57 C 380.24 67.71 368.33 67.66 356.42 67.57 C 356.35 48.57 356.21 29.55 356.50 10.55 Z" />
<path fill="#375172" opacity="1.00" d=" M 401.73 10.64 C 404.98 10.48 408.25 10.48 411.51 10.57 C 411.77 29.57 411.64 48.57 411.57 67.57 C 408.27 67.66 404.96 67.67 401.67 67.52 C 401.64 48.56 401.52 29.60 401.73 10.64 Z" />
<path fill="#375172" opacity="1.00" d=" M 423.58 10.57 C 426.36 10.54 429.16 10.31 431.92 10.70 C 433.10 11.68 434.05 12.91 434.91 14.18 C 441.32 24.14 447.71 34.12 453.87 44.25 C 455.15 46.42 456.63 48.48 458.44 50.25 C 458.74 37.03 458.34 23.80 458.64 10.58 C 461.59 10.51 464.55 10.51 467.52 10.53 C 467.82 29.54 467.66 48.57 467.60 67.59 C 464.77 67.54 461.86 68.01 459.08 67.34 C 457.44 65.85 456.21 63.99 455.04 62.13 C 449.81 53.65 444.38 45.31 439.03 36.91 C 437.15 33.76 435.32 30.53 432.65 27.97 C 432.58 41.18 432.75 54.39 432.58 67.60 C 429.56 67.64 426.55 67.64 423.54 67.58 C 423.48 48.57 423.39 29.57 423.58 10.57 Z" />
<path fill="#375172" opacity="1.00" d=" M 488.07 107.44 C 489.54 101.36 495.17 96.87 501.13 95.62 C 506.65 95.22 512.24 95.15 517.76 95.65 C 522.89 96.99 527.91 100.27 529.88 105.39 C 530.59 107.15 531.36 109.46 530.26 111.20 C 527.48 111.87 522.98 114.12 521.42 110.60 C 519.81 107.77 518.12 104.36 514.53 103.81 C 510.53 103.40 506.29 103.11 502.41 104.35 C 496.96 106.11 496.44 115.34 501.93 117.33 C 510.58 120.93 521.24 119.78 528.53 126.46 C 534.14 133.02 533.85 144.36 527.07 150.05 C 523.50 153.21 518.70 154.70 513.98 154.66 C 507.42 154.77 500.27 155.14 494.54 151.39 C 489.48 148.10 486.75 142.26 486.27 136.37 C 489.60 135.58 493.09 135.37 496.41 136.35 C 497.36 139.61 498.52 143.46 501.95 144.89 C 506.31 146.92 511.48 147.00 516.08 145.83 C 521.05 144.56 523.16 138.28 520.91 133.97 C 517.65 129.43 511.55 129.47 506.59 128.49 C 501.13 127.22 494.94 126.31 491.01 121.88 C 488.01 117.83 486.51 112.35 488.07 107.44 Z" />
<path fill="#375172" opacity="1.00" d=" M 832.48 95.75 C 837.57 95.05 842.79 95.26 847.91 95.59 C 857.04 97.55 863.93 105.62 866.15 114.47 C 867.69 122.79 868.16 131.72 864.75 139.67 C 861.86 147.63 854.43 153.57 846.01 154.50 C 839.68 154.94 832.91 155.18 827.19 151.99 C 819.62 148.37 815.05 140.21 814.29 132.06 C 812.53 124.94 813.89 117.55 816.02 110.68 C 818.80 103.57 825.13 97.84 832.48 95.75 M 836.30 104.11 C 829.19 105.81 824.75 112.98 824.49 119.98 C 824.20 126.02 823.84 132.49 826.73 138.03 C 830.84 148.33 847.31 149.22 853.04 139.92 C 857.41 134.20 856.78 126.71 856.58 119.94 C 856.44 115.16 854.01 110.65 850.63 107.36 C 846.98 103.64 841.17 102.90 836.30 104.11 Z" />
<path fill="#375172" opacity="1.00" d=" M 964.32 95.66 C 979.11 95.86 993.91 95.85 1008.70 95.66 C 1009.95 98.76 1009.47 102.13 1009.42 105.37 C 1003.49 105.40 997.56 105.29 991.64 105.47 C 991.57 121.52 991.65 137.56 991.60 153.61 C 988.25 153.62 984.90 153.63 981.55 153.59 C 981.61 137.55 981.62 121.50 981.55 105.46 C 975.67 105.34 969.80 105.29 963.93 105.49 C 963.41 102.22 963.25 98.84 964.32 95.66 Z" />
<path fill="#375172" opacity="1.00" d=" M 1016.79 95.80 C 1019.99 95.78 1023.19 95.77 1026.41 95.74 C 1026.96 115.02 1026.52 134.32 1026.63 153.61 C 1023.27 153.62 1019.92 153.63 1016.58 153.57 C 1016.81 134.32 1016.41 115.05 1016.79 95.80 Z" />
<path fill="#375172" opacity="1.00" d=" M 1054.53 95.87 C 1062.42 95.10 1071.34 94.07 1078.30 98.82 C 1085.56 103.54 1089.14 112.30 1089.83 120.68 C 1090.87 124.77 1089.64 128.90 1089.31 133.00 C 1087.96 143.12 1080.44 152.76 1069.98 154.34 C 1063.28 154.91 1055.97 155.43 1049.88 152.05 C 1041.82 147.87 1037.26 138.80 1036.64 130.00 C 1036.14 123.03 1036.40 115.72 1039.40 109.28 C 1042.27 102.94 1048.03 98.18 1054.53 95.87 M 1058.37 104.29 C 1054.37 105.56 1050.90 108.50 1049.25 112.38 C 1045.46 121.04 1045.77 131.51 1050.37 139.80 C 1055.18 147.78 1067.78 148.83 1074.06 142.07 C 1078.91 137.45 1079.73 130.35 1079.58 124.00 C 1079.43 118.10 1078.16 111.55 1073.53 107.46 C 1069.56 103.69 1063.51 102.70 1058.37 104.29 Z" />
<path fill="#375172" opacity="1.00" d=" M 1099.60 96.54 C 1102.46 96.01 1105.41 95.34 1108.34 95.87 C 1111.25 98.40 1112.49 102.27 1114.78 105.31 C 1121.95 115.56 1127.86 126.66 1135.13 136.84 C 1135.61 123.39 1135.00 109.92 1135.42 96.47 C 1138.39 96.44 1141.37 96.45 1144.35 96.53 C 1144.48 115.53 1144.44 134.53 1144.37 153.53 C 1141.56 153.60 1138.75 153.78 1135.96 153.53 C 1131.75 149.38 1129.37 143.74 1126.00 138.93 C 1122.27 133.08 1118.26 127.42 1114.71 121.47 C 1113.27 119.34 1112.24 116.56 1109.48 115.90 C 1109.25 128.46 1109.38 141.02 1109.42 153.58 C 1106.12 153.64 1102.82 153.63 1099.54 153.53 C 1099.66 134.53 1099.55 115.54 1099.60 96.54 Z" />
<path fill="#375172" opacity="1.00" d=" M 205.37 96.45 C 212.87 96.47 220.37 96.42 227.86 96.46 C 233.09 96.53 238.80 97.48 242.63 101.35 C 246.29 104.81 246.01 110.44 245.54 115.04 C 245.29 118.63 242.30 120.90 239.84 123.09 C 242.96 125.89 247.02 128.66 247.50 133.20 C 247.99 137.82 247.85 143.00 244.78 146.77 C 241.01 151.43 234.87 153.55 229.03 153.63 C 221.13 153.63 213.23 153.61 205.34 153.62 C 205.29 134.56 205.22 115.51 205.37 96.45 M 215.39 104.40 C 215.25 109.44 215.23 114.48 215.42 119.51 C 220.59 119.47 225.81 119.98 230.94 119.18 C 236.55 117.99 238.25 109.61 233.55 106.30 C 228.00 103.30 221.42 104.55 215.39 104.40 M 215.46 127.63 C 215.17 133.62 215.34 139.61 215.29 145.61 C 220.12 145.55 224.97 145.81 229.79 145.42 C 234.38 145.00 238.61 140.87 237.75 136.03 C 238.11 131.24 233.40 127.82 228.99 127.71 C 224.48 127.59 219.97 127.79 215.46 127.63 Z" />
<path fill="#375172" opacity="1.00" d=" M 318.59 97.69 C 323.93 94.72 330.17 95.36 336.03 95.35 C 340.73 95.23 345.37 97.06 348.98 100.01 C 352.35 102.83 353.58 107.22 354.56 111.32 C 351.41 111.68 348.28 112.66 345.09 112.30 C 343.39 109.67 342.53 106.16 339.54 104.62 C 336.30 102.94 332.49 103.63 328.99 103.57 C 325.96 103.44 322.99 105.04 321.49 107.69 C 318.56 111.67 322.21 117.15 326.46 118.21 C 334.68 120.32 344.12 120.13 350.78 126.16 C 357.79 133.17 356.33 146.65 347.61 151.64 C 342.45 155.15 335.95 154.78 330.01 154.67 C 324.27 154.69 318.37 152.82 314.12 148.87 C 310.81 145.66 309.77 140.98 309.15 136.59 C 312.43 135.31 316.00 135.47 319.34 136.39 C 320.07 139.79 321.57 143.44 324.98 144.92 C 329.77 147.05 335.56 147.17 340.43 145.21 C 345.98 142.55 346.11 133.39 340.31 130.95 C 332.22 128.00 322.77 128.70 315.51 123.52 C 307.46 117.00 309.02 102.06 318.59 97.69 Z" />
<path fill="#375172" opacity="1.00" d=" M 549.06 97.14 C 554.34 94.57 560.36 95.47 566.03 95.37 C 574.77 95.32 583.06 102.34 583.65 111.24 C 580.50 111.83 577.34 112.37 574.15 112.48 C 572.72 108.60 570.50 103.93 565.77 103.66 C 561.22 103.61 555.71 102.50 552.11 106.02 C 549.60 108.19 550.05 111.96 550.79 114.83 C 553.08 117.88 557.17 118.50 560.66 119.27 C 567.30 120.76 574.65 121.36 580.01 126.04 C 584.25 129.68 584.72 135.79 584.17 140.99 C 583.53 146.36 579.40 150.69 574.61 152.82 C 569.77 155.21 564.21 154.68 558.99 154.65 C 552.65 154.55 545.81 152.30 542.02 146.92 C 539.88 143.62 538.03 139.59 539.19 135.60 C 542.20 135.70 545.22 135.71 548.25 135.68 C 549.29 139.38 550.95 143.34 554.55 145.21 C 559.50 146.86 565.30 147.35 570.07 144.88 C 575.40 142.14 575.15 132.85 569.24 130.89 C 562.04 128.14 553.77 128.95 546.94 124.99 C 541.85 122.45 539.21 116.51 539.55 111.01 C 539.34 104.97 543.71 99.51 549.06 97.14 Z" />
<path fill="#375172" opacity="1.00" d=" M 758.61 96.58 C 761.87 96.50 765.16 96.17 768.41 96.66 C 774.28 105.17 779.47 114.17 785.18 122.80 C 788.21 127.23 790.46 132.25 794.33 136.06 C 794.38 122.86 794.15 109.66 794.44 96.47 C 797.46 96.44 800.50 96.45 803.54 96.49 C 803.75 115.51 803.70 134.54 803.56 153.56 C 800.71 153.58 797.85 153.86 795.03 153.41 C 793.17 151.74 791.87 149.58 790.54 147.51 C 785.56 139.50 780.45 131.57 775.38 123.63 C 773.57 120.97 772.12 117.96 769.53 115.94 C 769.01 128.44 769.36 140.97 769.36 153.49 C 765.76 153.65 762.15 153.66 758.55 153.51 C 758.68 134.54 758.57 115.56 758.61 96.58 Z" />
<path fill="#375172" opacity="1.00" d=" M 256.50 96.50 C 259.60 97.08 264.42 94.89 266.35 97.95 C 266.62 110.31 266.25 122.70 266.50 135.07 C 266.42 139.26 268.97 143.24 272.57 145.28 C 276.53 146.85 281.29 147.05 285.14 145.06 C 289.61 142.87 290.52 137.41 291.24 132.97 C 291.46 120.81 291.07 108.64 291.42 96.48 C 294.45 96.45 297.49 96.45 300.52 96.49 C 300.74 109.33 300.59 122.16 300.61 134.99 C 300.83 141.66 297.39 148.29 291.79 151.91 C 285.96 155.64 278.60 154.81 272.03 154.36 C 262.68 153.19 256.51 144.03 256.48 135.04 C 256.37 122.19 256.36 109.34 256.50 96.50 Z" />
<path fill="#375172" opacity="1.00" d=" M 364.08 97.39 C 367.05 95.97 370.40 96.50 373.57 96.46 C 373.79 115.50 373.74 134.55 373.60 153.60 C 370.42 153.46 366.95 154.29 364.07 152.59 C 364.33 134.20 364.31 115.78 364.08 97.39 Z" />
<path fill="#375172" opacity="1.00" d=" M 385.89 96.90 C 388.81 95.95 391.98 96.60 395.01 96.53 C 401.61 106.52 407.83 116.76 414.28 126.86 C 416.20 129.76 417.68 133.08 420.45 135.31 C 421.03 122.53 419.98 109.64 420.95 96.92 C 423.95 95.91 427.25 96.61 430.37 96.51 C 430.49 115.53 430.48 134.54 430.38 153.56 C 427.57 153.62 424.75 153.76 421.95 153.53 C 418.93 151.01 417.19 147.34 415.00 144.14 C 408.48 134.06 402.40 123.66 395.56 113.81 C 395.08 127.05 395.56 140.31 395.31 153.56 C 392.08 153.66 388.84 153.64 385.61 153.47 C 385.41 136.65 385.62 119.82 385.50 103.00 C 385.55 100.97 385.30 98.87 385.89 96.90 Z" />
<path fill="#375172" opacity="1.00" d=" M 442.19 96.66 C 454.94 96.20 467.71 96.53 480.47 96.50 C 480.52 99.24 480.53 101.99 480.53 104.74 C 471.17 104.83 461.80 104.89 452.45 104.69 C 452.14 109.91 452.14 115.14 452.48 120.36 C 461.24 120.15 470.00 120.25 478.76 120.28 C 478.78 123.05 478.75 125.82 478.67 128.59 C 469.89 128.58 461.11 128.66 452.33 128.52 C 452.17 133.80 452.32 139.09 452.19 144.38 C 462.01 144.87 471.86 144.51 481.69 144.57 C 481.67 147.61 481.45 150.65 480.69 153.61 C 467.89 153.66 455.10 153.55 442.30 153.66 C 442.12 134.66 442.34 115.66 442.19 96.66 Z" />
<path fill="#375172" opacity="1.00" d=" M 617.27 100.32 C 621.36 95.49 628.28 95.74 633.96 96.63 C 641.03 98.51 644.88 107.68 641.23 114.04 C 639.63 118.19 635.88 120.79 632.14 122.83 C 633.50 125.69 635.85 127.85 637.80 130.30 C 639.64 132.45 641.17 135.24 644.16 135.90 C 644.34 132.42 644.89 128.98 645.67 125.58 C 648.39 125.57 651.11 125.58 653.84 125.62 C 653.61 130.45 653.05 135.39 650.65 139.68 C 650.15 141.12 648.61 142.78 649.72 144.30 C 652.09 147.47 655.33 149.96 657.13 153.56 C 653.60 153.67 650.08 153.65 646.55 153.53 C 645.22 152.54 644.36 149.98 642.39 150.52 C 638.95 151.87 635.86 154.38 632.03 154.51 C 626.27 154.68 619.96 155.25 614.86 152.05 C 607.30 148.00 605.41 137.07 609.88 130.10 C 612.01 126.25 616.15 124.31 619.16 121.28 C 617.43 118.90 615.57 116.52 614.56 113.72 C 613.98 109.18 613.39 103.65 617.27 100.32 M 622.73 107.14 C 621.77 111.28 624.79 114.73 626.98 117.88 C 631.03 116.13 635.12 111.90 634.18 107.17 C 633.03 101.80 623.94 101.80 622.73 107.14 M 623.18 128.29 C 620.16 129.58 617.20 132.52 617.40 136.03 C 617.47 138.43 616.92 141.32 618.88 143.15 C 623.36 148.44 631.51 148.37 637.13 145.00 C 638.37 143.22 636.41 141.89 635.40 140.62 C 632.12 137.18 629.41 133.24 626.10 129.83 C 625.25 129.22 624.36 127.73 623.18 128.29 Z" />
<path fill="#375172" opacity="1.00" d=" M 680.78 96.64 C 684.09 96.37 687.43 96.30 690.74 96.75 C 690.59 115.71 690.75 134.66 690.66 153.62 C 687.41 153.61 684.18 153.62 680.94 153.63 C 680.41 147.43 680.76 141.21 680.67 135.00 C 680.73 122.22 680.54 109.43 680.78 96.64 Z" />
<path fill="#375172" opacity="1.00" d=" M 702.61 96.52 C 705.73 96.42 708.86 96.42 711.99 96.56 C 717.38 105.82 723.65 114.52 729.25 123.65 C 732.06 127.78 734.22 132.37 737.50 136.17 C 737.77 122.96 737.43 109.75 737.67 96.54 C 740.63 96.45 743.60 96.44 746.57 96.47 C 746.82 115.51 746.77 134.55 746.60 153.59 C 743.73 153.63 740.86 153.62 738.00 153.54 C 730.89 142.16 723.21 131.15 716.34 119.62 C 715.12 117.44 713.54 115.50 711.65 113.88 C 711.64 127.11 711.81 140.35 711.58 153.59 C 708.58 153.63 705.59 153.63 702.61 153.56 C 702.49 134.54 702.49 115.53 702.61 96.52 Z" />
<path fill="#375172" opacity="1.00" d=" M 869.35 96.58 C 872.85 96.48 876.39 96.17 879.88 96.67 C 882.51 100.07 882.72 104.69 884.57 108.52 C 888.82 118.59 891.14 129.39 895.94 139.23 C 900.52 125.89 905.40 112.65 910.22 99.39 C 910.59 98.31 911.19 97.38 912.04 96.60 C 915.27 96.25 918.52 96.46 921.77 96.53 C 915.74 114.25 908.51 131.52 902.16 149.12 C 901.63 150.56 901.09 152.01 900.26 153.29 C 897.10 154.00 893.82 153.53 890.62 153.55 C 885.64 139.32 879.81 125.41 874.61 111.26 C 872.86 106.36 870.48 101.68 869.35 96.58 Z" />
<path fill="#375172" opacity="1.00" d=" M 918.42 146.13 C 925.08 129.65 930.83 112.79 937.74 96.41 C 940.90 96.47 944.06 96.47 947.23 96.45 C 952.45 108.38 956.54 120.78 961.34 132.88 C 963.64 139.86 967.17 146.41 968.91 153.56 C 965.43 153.65 961.96 153.64 958.49 153.57 C 956.55 148.96 955.20 144.13 953.27 139.53 C 946.33 137.97 939.03 139.19 931.95 138.87 C 929.47 143.51 927.96 148.58 926.37 153.57 C 922.95 153.63 919.54 153.64 916.13 153.58 C 916.66 151.03 917.42 148.54 918.42 146.13 M 934.35 130.28 C 939.57 130.85 944.84 130.51 950.09 130.56 C 947.99 123.25 944.53 116.39 943.00 108.90 C 938.68 115.33 937.49 123.27 934.35 130.28 Z" />
</g>
</svg>
